<svg id="Layer_1" data-name="Layer 1" xmlns="http://www.w3.org/2000/svg" viewBox="0 0 850 400"><rect width="850" height="400" style="fill:#fff"/><circle cx="105.89429" cy="321.77894" r="15.68037" transform="translate(-146.76895 96.13192) rotate(-30.01691)" style="fill:#84cebc"/><path d="M105.8911,338.073a16.29318,16.29318,0,1,1,15.75946-12.15025A16.25011,16.25011,0,0,1,105.8911,338.073Zm.006-31.36457a15.08014,15.08014,0,1,0,3.82979.49716A15.09526,15.09526,0,0,0,105.8971,306.70842Z"/><path d="M105.40781,330.613a4.37416,4.37416,0,0,1-1.11041-.14223c-3.7898-.99644-4.80737-3.40337-4.84886-3.50572a.61174.61174,0,1,1,1.13354-.46042c.03187.07449.86447,1.95127,4.02638,2.78249a3.20473,3.20473,0,0,0,2.325-.28083,3.11627,3.11627,0,0,0,1.53322-2.015c.60638-2.3057-.8366-3.4921-2.50742-4.86622-1.63819-1.347-3.49473-2.87409-2.91046-5.61034a4.443,4.443,0,0,1,2.06774-2.66613,4.10792,4.10792,0,0,1,3.23328-.53527c3.61621.95069,3.92315,3.31813,3.93452,3.41849a.61183.61183,0,0,1-1.215.145c-.01275-.08486-.28833-1.65932-3.03519-2.38131a2.9049,2.9049,0,0,0-2.28058.3978,3.28966,3.28966,0,0,0-1.50835,1.87715c-.42879,2.00826.92446,3.12105,2.49129,4.40944,1.7433,1.43386,3.71931,3.05893,2.91346,6.123a4.37956,4.37956,0,0,1-2.131,2.77761A4.42805,4.42805,0,0,1,105.40781,330.613Z"/><path d="M108.24441,314.52922a.61218.61218,0,0,1-.592-.76748L108.234,311.55a.6118.6118,0,0,1,1.18328.31156l-.58164,2.21159A.61212.61212,0,0,1,108.24441,314.52922Z"/><path d="M103.22734,332.53352a.62132.62132,0,0,1-.156-.01988.61224.61224,0,0,1-.43605-.74761l.58164-2.21209a.61179.61179,0,1,1,1.18328.31144l-.58164,2.2121A.612.612,0,0,1,103.22734,332.53352Z"/><path d="M92.56832,261.202a22.42211,22.42211,0,0,1-18.756-34.68933.6119.6119,0,0,1,1.02369.67063,21.1893,21.1893,0,1,0,5.67857-5.83055.6117.6117,0,0,1-.69737-1.00519,22.31342,22.31342,0,0,1,12.39533-3.98089q.1854-.003.37093-.00287a22.41922,22.41922,0,0,1,.36031,44.83545C92.81865,261.20123,92.693,261.202,92.56832,261.202Z"/><path d="M92.56969,274.73547A35.9942,35.9942,0,0,1,56.6306,239.36939a35.595,35.595,0,0,1,7.24266-22.23613.6118.6118,0,1,1,.97619.73774,34.38148,34.38148,0,0,0-6.99533,21.47852A34.772,34.772,0,0,0,92.56994,273.512c.19222,0,.38193-.00163.57477-.00488a34.72863,34.72863,0,1,0-1.13292-69.448,34.37774,34.37774,0,0,0-21.30667,7.74669.61157.61157,0,1,1-.77111-.94945,35.95339,35.95339,0,0,1,58.59165,27.34006,35.99362,35.99362,0,0,1-35.36108,36.53436C92.96624,274.73384,92.76728,274.73547,92.56969,274.73547Z"/><path d="M102.03981,238.62866a9.46294,9.46294,0,1,0-9.30727,9.616A9.463,9.463,0,0,0,102.03981,238.62866Z" style="fill:#84cebc"/><path d="M92.57369,248.85776a10.04337,10.04337,0,1,1,.16872-.00112C92.68629,248.85739,92.62968,248.85776,92.57369,248.85776Zm.00662-18.92587c-.049,0-.09735.00038-.14659.00125a8.84671,8.84671,0,1,0,.14659-.00125Z"/><path d="M92.57806,239.39489a.611.611,0,0,1-.42554-.17209L52.33564,200.68393a.61188.61188,0,0,1,.8511-.87933l39.81687,38.53873a.612.612,0,0,1-.42555,1.05156Z"/><polygon points="62.631 209.957 52.681 200.327 43.548 201.403 53.498 211.033 62.631 209.957"/><path d="M53.4978,211.64528a.61116.61116,0,0,1-.42554-.1721l-9.94991-9.63059a.61171.61171,0,0,1,.35406-1.04705l9.13343-1.07618a.60089.60089,0,0,1,.497.16759l9.9499,9.63072a.61179.61179,0,0,1-.35418,1.04706l-9.13331,1.07617A.52894.52894,0,0,1,53.4978,211.64528Zm-8.59828-9.78557,8.81512,8.53217,7.565-.89133-8.81511-8.53217Z"/><polygon points="62.711 209.875 52.761 200.244 53.459 191.163 63.409 200.794 62.711 209.875"/><path d="M62.71122,210.48624a.61176.61176,0,0,1-.42554-.17209l-9.94991-9.63022a.61229.61229,0,0,1-.18459-.48666l.69762-9.08094a.612.612,0,0,1,1.03556-.3928l9.94978,9.63071a.61263.61263,0,0,1,.18447.48666l-.69763,9.08057a.61175.61175,0,0,1-.60976.56477Zm-9.318-10.48168,8.80762,8.52454.57576-7.49548L53.969,192.5087Z"/><path d="M599.72989,302.15614a30.68806,30.68806,0,1,1,55.92739,19.60375l10.729,9.5856a44.99237,44.99237,0,1,0-81.02112-28.38075Z" style="fill:#fff"/><path d="M666.38629,331.95725a.6104.6104,0,0,1-.40742-.15572l-10.72914-9.58573a.61109.61109,0,0,1-.09711-.8021,30.07745,30.07745,0,0,0-47.25223-37.02489A29.79619,29.79619,0,0,0,600.34,302.201a.61216.61216,0,0,1-.57589.566l-14.36472.80847a.63638.63638,0,0,1-.46153-.17321.61216.61216,0,0,1-.1841-.45729,45.60319,45.60319,0,1,1,82.12242,28.76692.6105.6105,0,0,1-.42892.24208C666.42691,331.956,666.40666,331.95725,666.38629,331.95725ZM656.4625,321.659l9.82981,8.78225a44.65435,44.65435,0,0,0-6.39057-59.10718,44.37942,44.37942,0,0,0-73.89844,30.98164l13.16019-.74037a31.30028,31.30028,0,0,1,52.02574-20.4892A31.35208,31.35208,0,0,1,656.4625,321.659Zm-56.73261-19.503h0Z"/><path d="M650.3945,327.65055a30.59893,30.59893,0,0,1-18.4602,7.428l-.8331,14.33547a44.8726,44.8726,0,0,0,30.02219-12.17787Z"/><path d="M631.10109,350.02553a.61125.61125,0,0,1-.61053-.64713l.83322-14.33522a.61135.61135,0,0,1,.57865-.57552,30.16361,30.16361,0,0,0,18.09152-7.27953.611.611,0,0,1,.8081.00637l10.72876,9.5856a.61112.61112,0,0,1,.0115.90171,45.45893,45.45893,0,0,1-30.43049,12.34372Zm1.41235-14.36947-.76311,13.1297a44.2293,44.2293,0,0,0,28.46412-11.54124l-9.82982-8.78225A31.41188,31.41188,0,0,1,632.51344,335.65606Z"/><path d="M624.05713,334.47078a30.66288,30.66288,0,0,1-23.89308-24.42735l-14.36171.80835a45.00176,45.00176,0,0,0,37.41832,38.01084Z" style="fill:#84cebc"/><path d="M623.22053,349.47438a.59152.59152,0,0,1-.096-.00763,45.61458,45.61458,0,0,1-37.92785-38.528.6115.6115,0,0,1,.57115-.69787l14.362-.80847a.615.615,0,0,1,.63565.49941,30.05006,30.05006,0,0,0,23.41615,23.93994.61137.61137,0,0,1,.48591.63451l-.83633,14.39171a.61147.61147,0,0,1-.61066.57639Zm-36.71307-38.04933a44.39255,44.39255,0,0,0,36.14193,36.72182l.76636-13.18893a31.27713,31.27713,0,0,1-23.75035-24.27375Z"/><path d="M601.32971,103.87586l-3.62345-2.38793a8.52273,8.52273,0,0,0-12.69465,4.1906l-1.4896,4.07587c-5.97439-.78073-4.94683-.64651-10.92123-1.42724l-.39217-4.32182a8.52284,8.52284,0,0,0-11.19143-7.31228l-4.11536,1.37662c-3.11455-5.15779-2.5789-4.2707-5.69332-9.4285L554.34281,85.64A8.52255,8.52255,0,0,0,553.082,72.3312L549.44,69.97189c2.09059-5.65083,1.731-4.679,3.82165-10.32984l4.3007.57939a8.52274,8.52274,0,0,0,9.61922-9.28365l-.4263-4.31858c5.72144-1.88877,4.73738-1.56383,10.45894-3.45261l2.22846,3.72369a8.52268,8.52268,0,0,0,13.25567,1.7323l3.11068-3.02581c5.044,3.29564,4.17635,2.72874,9.22041,6.02438l-1.52184,4.064A8.52274,8.52274,0,0,0,610.41791,67.129l4.3052.54527c.56814,5.99839.47041,4.96671,1.03868,10.9651l-4.12611,1.344A8.52271,8.52271,0,0,0,606.997,92.52134l2.25783,3.70581C604.91942,100.41138,605.66516,99.69176,601.32971,103.87586Z" style="fill:#fff"/><path d="M583.52226,110.366a.5919.5919,0,0,1-.07961-.00525l-10.9211-1.427a.61193.61193,0,0,1-.53015-.55127l-.3923-4.32183a7.91044,7.91044,0,0,0-10.38771-6.78724L557.09591,98.65a.61369.61369,0,0,1-.71775-.26407l-5.69357-9.42826a.61164.61164,0,0,1,.10074-.758l3.13454-3.00157a7.91164,7.91164,0,0,0-1.17052-12.35371l-3.642-2.35907a.612.612,0,0,1-.24133-.72561l3.82154-10.33009a.60976.60976,0,0,1,.65563-.39393l4.3007.57952a7.91072,7.91072,0,0,0,8.92847-8.61728l-.42617-4.3187a.61182.61182,0,0,1,.4173-.641l10.45906-3.45237a.612.612,0,0,1,.71662.26658l2.22834,3.72369a7.91085,7.91085,0,0,0,12.30434,1.60782l3.11068-3.02581a.6122.6122,0,0,1,.7611-.07361l9.22042,6.02451a.61137.61137,0,0,1,.23821.72686L604.08045,55.9a7.9102,7.9102,0,0,0,6.41446,10.62191l4.30506.54528a.61212.61212,0,0,1,.53215.54927l1.03868,10.96534a.61214.61214,0,0,1-.4194.63964l-4.12625,1.34337a7.91156,7.91156,0,0,0-4.30558,11.63847l2.258,3.70569a.61149.61149,0,0,1-.09762.75823l-7.92516,7.64884a.612.612,0,0,1-.76148.07086l-3.62371-2.38818a7.91127,7.91127,0,0,0-11.78332,3.88978l-1.48959,4.07562A.61208.61208,0,0,1,583.52226,110.366Zm-10.3562-2.58214,9.94965,1.30038,1.32113-3.61558a9.13475,9.13475,0,0,1,13.60586-4.49192l3.21465,2.11886,7.22017-6.96846-2.003-3.28752A9.13419,9.13419,0,0,1,611.446,79.40177l3.66068-1.19241-.94632-9.9899-3.81929-.48353a9.13427,9.13427,0,0,1-7.40613-12.26523l1.34975-3.60533-8.40032-5.48849L593.12511,49.061a9.13444,9.13444,0,0,1-14.20737-1.85641L576.941,43.90109l-9.52911,3.14529.37845,3.83117a9.13418,9.13418,0,0,1-10.30973,9.95l-3.81516-.51415-3.48185,9.41113,3.23088,2.09311a9.13392,9.13392,0,0,1,1.35138,14.26386l-2.78049,2.663,5.18693,8.58941,3.65119-1.22115a9.13417,9.13417,0,0,1,11.9944,7.83717Z"/><circle cx="582.60084" cy="76.46053" r="15.51814" transform="translate(116.57408 434.35577) rotate(-45)"/><path d="M582.60068,92.59032A16.12989,16.12989,0,1,1,598.731,76.46044,16.14792,16.14792,0,0,1,582.60068,92.59032Zm0-31.03625a14.90637,14.90637,0,1,0,14.90674,14.90637A14.92315,14.92315,0,0,0,582.60068,61.55407Z"/><circle cx="582.60084" cy="76.46053" r="10.09877" transform="translate(116.57408 434.35577) rotate(-45)" style="fill:#fff"/><path d="M582.60068,87.1712a10.71058,10.71058,0,1,1,10.71077-10.71076A10.72271,10.72271,0,0,1,582.60068,87.1712Zm0-20.19763a9.48706,9.48706,0,1,0,9.48725,9.48687A9.49752,9.49752,0,0,0,582.60068,66.97357Z"/><path d="M298.14812,389.89727l-2.62564-1.73043a6.17582,6.17582,0,0,0-9.19892,3.03669l-1.07943,2.95345c-4.3292-.56577-3.58457-.46854-7.91377-1.03431l-.28421-3.13154a6.17566,6.17566,0,0,0-8.1095-5.29865l-2.98207.99744c-2.257-3.73743-1.86878-3.09467-4.12561-6.83211l2.2712-2.17472a6.1756,6.1756,0,0,0-.91358-9.64384l-2.63913-1.70968c1.51484-4.09474,1.25439-3.3905,2.76924-7.48524l3.11642.4198a6.17573,6.17573,0,0,0,6.97033-6.72713l-.30894-3.1293c4.146-1.36862,3.43286-1.13316,7.57884-2.50179l1.61484,2.69813a6.17562,6.17562,0,0,0,9.60533,1.25539l2.25409-2.19259c3.655,2.38806,3.02631,1.97726,6.68126,4.36544l-1.10266,2.94483a6.17574,6.17574,0,0,0,5.00744,8.29246l3.11954.39518c.4118,4.34657.34094,3.599.75274,7.94553l-2.99.97394a6.17576,6.17576,0,0,0-3.36125,9.0852l1.63607,2.68537C300.74926,387.38673,301.28967,386.86533,298.14812,389.89727Z" style="fill:#fff"/><path d="M285.24463,394.76862a.59251.59251,0,0,1-.07973-.00525l-7.91379-1.03394a.61144.61144,0,0,1-.5299-.55127l-.2842-3.13167a5.56393,5.56393,0,0,0-7.30638-4.774l-2.98195.99781a.614.614,0,0,1-.718-.26407l-4.12549-6.83224a.61177.61177,0,0,1,.10062-.758l2.27119-2.1746a5.56426,5.56426,0,0,0-.82285-8.68876l-2.63926-1.70981a.61183.61183,0,0,1-.2412-.72574l2.76937-7.485a.60764.60764,0,0,1,.65537-.39393l3.11643.4198a5.56406,5.56406,0,0,0,6.27983-6.06075l-.30895-3.1293a.61227.61227,0,0,1,.417-.64126l7.57885-2.50216a.61324.61324,0,0,1,.71675.267l1.6147,2.69838A5.56417,5.56417,0,0,0,291.467,349.421l2.254-2.19259a.61194.61194,0,0,1,.76111-.07374l6.68139,4.36532a.6119.6119,0,0,1,.23832.72687l-1.10267,2.945a5.56382,5.56382,0,0,0,4.51142,7.47062l3.11954.39517a.61143.61143,0,0,1,.53216.54928l.75261,7.9454a.61109.61109,0,0,1-.41943.63926l-2.98969.97419a5.56416,5.56416,0,0,0-3.02844,8.18561l1.63595,2.68538a.61082.61082,0,0,1-.09761.75823l-5.74269,5.54223a.61151.61151,0,0,1-.76135.07086l-2.62565-1.73018a5.56451,5.56451,0,0,0-8.28784,2.73549l-1.07942,2.95333A.61166.61166,0,0,1,285.24463,394.76862Zm-7.34926-2.1891,6.94235.90733.91132-2.49329a6.78744,6.78744,0,0,1,10.10988-3.33763l2.21671,1.46086,5.03794-4.86185-1.38124-2.26708a6.78692,6.78692,0,0,1,3.69431-9.985l2.524-.82247-.66026-6.97046-2.63363-.33344a6.78756,6.78756,0,0,1-5.50361-9.11406l.93108-2.486-5.86129-3.82917L292.3202,350.298a6.788,6.788,0,0,1-10.55705-1.37962L280.4,346.64015l-6.64852,2.195.26071,2.64189a6.78728,6.78728,0,0,1-7.66071,7.39338l-2.63089-.35444-2.4293,6.56654,2.228,1.44336a6.78724,6.78724,0,0,1,1.00406,10.59891l-1.91752,1.83616,3.61909,5.99339,2.51753-.84235a6.788,6.788,0,0,1,8.913,5.8238Z"/><circle cx="284.57663" cy="370.03145" r="8.98634" style="fill:#fff"/><path d="M284.57663,379.62954a9.59816,9.59816,0,1,1,9.59822-9.59834A9.60912,9.60912,0,0,1,284.57663,379.62954Zm0-17.97267a8.37458,8.37458,0,1,0,8.37458,8.37433A8.38383,8.38383,0,0,0,284.57663,361.65687Z"/><rect x="686.28794" y="224.95172" width="10.71316" height="4.98439" transform="translate(85.70431 -176.21353) rotate(15.46705)"/><path d="M696.1429,231.88628a.61178.61178,0,0,1-.16372-.02225L685.654,229.00669a.61183.61183,0,0,1-.42617-.75274l1.3295-4.80373a.61154.61154,0,0,1,.75274-.42617l10.32521,2.85684a.61188.61188,0,0,1,.42617.75286l-1.3295,4.80411A.61165.61165,0,0,1,696.1429,231.88628Zm-9.57285-3.89565,9.14581,2.53115,1.00331-3.62483-9.14593-2.53065Z"/><path d="M731.69144,185.09519a27.30251,27.30251,0,1,0-50.05785,6.18911c3.92315,6.91172,7.04434,11.5846,4.92473,19.24443l18.1445,5.02082c2.09361-7.56584,6.99933-10.04451,13.8718-13.83831A27.209,27.209,0,0,0,731.69144,185.09519Z" style="fill:#fff"/><path d="M704.70294,216.16107a.60274.60274,0,0,1-.16334-.02225L686.39521,211.118a.61147.61147,0,0,1-.42617-.75286c1.91452-6.91984-.61626-11.344-4.11911-17.46689q-.368-.64338-.74849-1.312a27.91265,27.91265,0,1,1,51.1794-6.32758h0a27.69044,27.69044,0,0,1-13.41077,16.98823l-.68987.38031c-6.58416,3.6272-10.93385,6.02376-12.88785,13.08545a.61213.61213,0,0,1-.58941.44842Zm-17.4-6.06113,16.98135,4.69863c2.17347-7.10993,6.8701-9.69758,13.30529-13.24317l.68937-.37993a26.69092,26.69092,0,1,0-36.11319-10.193q.37869.66738.74636,1.30838C686.33022,198.26563,689.04934,203.01837,687.30292,210.09994Z"/><path d="M683.87618,213.73164l2.34331-8.46843,21.48065,5.9439-2.34332,8.46843a11.144,11.144,0,0,1-13.71233,7.76844h0A11.1441,11.1441,0,0,1,683.87618,213.73164Z" style="fill:#84cebc"/><path d="M696.38661,229.04655a9.19342,9.19342,0,0,1-2.45417-.33493l-4.90259-1.35663a9.21152,9.21152,0,0,1-6.42156-11.33527h0l3.02181-10.91986a.611.611,0,0,1,.75274-.42617l21.48052,5.944a.61148.61148,0,0,1,.42617.75273l-3.02144,10.91986A9.22957,9.22957,0,0,1,696.38661,229.04655Zm-12.59942-12.70027h0a7.98862,7.98862,0,0,0,5.56922,9.82981l4.90259,1.3565a7.99754,7.99754,0,0,0,9.83018-5.56885l2.8581-10.33-20.30124-5.618Z"/><path d="M704.16881,214.60773a.20342.20342,0,0,1-.05463-.0075l-16.56354-4.58315a.20377.20377,0,1,1,.10908-.39268l16.56369,4.583a.20389.20389,0,0,1-.0546.4003Z"/><path d="M711.209,189.16544a.20231.20231,0,0,1-.05462-.0075l-16.56318-4.58315a.20378.20378,0,1,1,.10911-.39268l16.56318,4.583a.20387.20387,0,0,1-.05449.4003Z"/><path d="M715.59655,141.49789a.61222.61222,0,0,1-.58989-.7751l2.81823-10.18424a.61171.61171,0,0,1,1.179.32656l-2.81835,10.18424A.61187.61187,0,0,1,715.59655,141.49789Z"/><path d="M741.453,159.33209a.61176.61176,0,0,1-.30194-1.14391l9.19419-5.20841a.61157.61157,0,1,1,.603,1.06417l-9.19417,5.20841A.60562.60562,0,0,1,741.453,159.33209Z"/><path d="M755.31309,190.25274a.61221.61221,0,0,1-.16372-.02225l-10.18426-2.81785a.61171.61171,0,0,1,.32657-1.179l10.18423,2.818a.61168.61168,0,0,1-.16282,1.20115Z"/><path d="M685.84394,143.94419a.61091.61091,0,0,1-.53253-.31032l-5.20879-9.19405a.61158.61158,0,1,1,1.0642-.603l5.20877,9.194a.612.612,0,0,1-.53165.91333Z"/><path d="M668.24432,166.16a.61308.61308,0,0,1-.16372-.02237l-10.18424-2.81823a.61173.61173,0,0,1,.32669-1.179l10.18424,2.81835a.61175.61175,0,0,1-.163,1.20128Z"/><path d="M693.26444,207.29833a.61192.61192,0,0,1-.59627-.75c.04387-.18959,4.31633-19.078-2.10248-29.31882a.61164.61164,0,1,1,1.0363-.65c6.69052,10.67377,2.4423,29.45105,2.258,30.24528A.61142.61142,0,0,1,693.26444,207.29833Z"/><path d="M700.92589,209.41881a.61158.61158,0,0,1-.58226-.79972c.25057-.77586,6.25909-19.06647,17.48451-24.78229a.6118.6118,0,1,1,.55514,1.09043c-10.7701,5.4841-16.81524,23.8827-16.875,24.06779A.61227.61227,0,0,1,700.92589,209.41881Z"/><path d="M718.16433,184.78425a.61146.61146,0,0,1-.16372-.02224,3.59324,3.59324,0,0,1-2.30018-2.10261c-.37758-.70375-.67552-1.25977-1.54847-1.50148a2.42024,2.42024,0,0,0-2.10063.49179,3.43913,3.43913,0,0,1-5.35613-1.482c-.37768-.70424-.676-1.26014-1.54984-1.502a2.41892,2.41892,0,0,0-2.10048.49191,3.44,3.44,0,0,1-5.357-1.4821c-.37806-.7045-.67638-1.26052-1.551-1.50272a2.41912,2.41912,0,0,0-2.10211.49153,3.59155,3.59155,0,0,1-3.05618.62014.61167.61167,0,1,1,.32669-1.17891,2.42218,2.42218,0,0,0,2.10211-.49154,3.44169,3.44169,0,0,1,5.35865,1.48286c.37791.70411.67623,1.26014,1.55045,1.50234a2.42094,2.42094,0,0,0,2.10061-.49191,3.43919,3.43919,0,0,1,5.35625,1.4821c.37756.70375.6759,1.26015,1.54972,1.50185a2.4202,2.4202,0,0,0,2.101-.49178,3.43727,3.43727,0,0,1,5.35451,1.482c.37768.70375.6755,1.25977,1.54859,1.5016a.61168.61168,0,0,1-.16284,1.20115Z"/><polygon points="190.071 216.694 179.185 208.531 176.678 153.159 199.798 184.907 190.071 216.694"/><path d="M190.07088,217.30573a.61136.61136,0,0,1-.367-.12223l-10.88549-8.16336a.61241.61241,0,0,1-.24408-.462L176.067,153.18648a.61179.61179,0,0,1,1.10567-.38756l23.11947,31.748a.61121.61121,0,0,1,.0906.5389l-9.72682,31.787a.61242.61242,0,0,1-.585.43292Zm-10.28746-9.09132,9.9574,7.46749,9.38251-30.66182-21.742-29.85609Z"/><polygon points="252.628 171.139 248.199 158.273 196.27 138.892 219.389 170.64 252.628 171.139"/><path d="M252.62767,171.75067h-.00912l-33.23822-.499a.61058.61058,0,0,1-.48529-.2517l-23.11946-31.748a.61163.61163,0,0,1,.70837-.9332l51.9295,19.38154a.6114.6114,0,0,1,.36456.37393l4.42818,12.86562a.61206.61206,0,0,1-.57852.81085Zm-32.92353-1.71781,32.06144.48116-4.05062-11.7687L197.9623,140.17639Z"/><path d="M198.48033,191.76108l-42.1257-48.04335c-17.10983-19.51338-25.1116-44.32129-21.1972-68.20062l.12073.02187A84.76467,84.76467,0,0,1,192.6909,115.43l33.55591,56.111Z" style="fill:#84cebc"/><path d="M198.4807,192.37285a.61167.61167,0,0,1-.46041-.20822l-42.12583-48.04322c-17.456-19.90894-25.23457-44.95-21.34092-68.70291a.61145.61145,0,0,1,.71112-.5034l.12073.02149A85.141,85.141,0,0,1,193.2158,115.116l33.556,56.11086a.6117.6117,0,0,1-.165.8086l-27.76649,20.22025A.609.609,0,0,1,198.4807,192.37285Zm-62.81786-116.141c-3.60021,23.20671,4.089,47.62256,21.1517,67.08258l41.75739,47.62306,26.863-19.56238-33.2691-55.63145A83.92858,83.92858,0,0,0,135.66284,76.23185Z"/><path d="M161.16036,127.00658a9.26692,9.26692,0,1,1,12.94623,2.03587A9.267,9.267,0,0,1,161.16036,127.00658Z" style="fill:#fff"/><path d="M168.66447,131.42676a9.87425,9.87425,0,1,1,5.80218-1.88953A9.87083,9.87083,0,0,1,168.66447,131.42676Zm-.03137-18.53245a8.65773,8.65773,0,0,0-6.97833,13.75221h0A8.65524,8.65524,0,1,0,169.9961,113.001,8.81711,8.81711,0,0,0,168.6331,112.89431Z"/><rect x="200.79675" y="180.82258" width="28.62337" height="9.8751" transform="translate(-68.13092 162.22436) rotate(-36.06267)" style="fill:#fff"/><path d="M206.44648,198.78816a.61082.61082,0,0,1-.495-.25171l-5.8133-7.98252a.6116.6116,0,0,1,.13448-.85471l23.13821-16.85a.61184.61184,0,0,1,.85447.1346l5.8133,7.9829a.61176.61176,0,0,1-.13447.85472l-23.13821,16.84963A.60993.60993,0,0,1,206.44648,198.78816Zm-4.95909-8.46006,5.09294,6.99358,22.149-16.12914-5.09294-6.994Z"/><path d="M138.38808,113.13527a.204.204,0,0,1-.12023-.36881l31.484-22.9275a.204.204,0,0,1,.2402.32981l-31.48417,22.92751A.20385.20385,0,0,1,138.38808,113.13527Z"/><path d="M224.584,232.32407a.61165.61165,0,0,1-.60564-.5309,83.37461,83.37461,0,0,0-5.76155-21.25506.61177.61177,0,0,1,1.12829-.47329,84.60923,84.60923,0,0,1,5.846,21.56663.61192.61192,0,0,1-.52565.68737A.61973.61973,0,0,1,224.584,232.32407Z"/><path d="M216.29,206.26277a.61192.61192,0,0,1-.52-.28832l-2.64739-4.25258a.6118.6118,0,0,1,1.03869-.64676l2.64751,4.25246a.6117.6117,0,0,1-.51878.9352Z"/><path d="M226.83732,250.33186a.61034.61034,0,0,1-.43354-.18,8.91688,8.91688,0,0,1-2.34119-5.64383,25.22954,25.22954,0,0,1,.467-5.91891.61184.61184,0,1,1,1.2084.19272,24.29846,24.29846,0,0,0-.45542,5.6322,7.70347,7.70347,0,0,0,1.98827,4.87435.6117.6117,0,0,1-.43356,1.04343Z"/><path d="M242.44443,210.24566a.611.611,0,0,1-.44329-.19,149.30138,149.30138,0,0,1-14.53331-17.8592.61174.61174,0,1,1,1.00607-.69624,148.05483,148.05483,0,0,0,14.41383,17.71184.61176.61176,0,0,1-.4433,1.03356Z"/><path d="M253.90244,216.279a.61148.61148,0,0,1-.24058-.04949l-5.56922-2.3853a.61177.61177,0,1,1,.48153-1.1248l5.56923,2.38544a.61176.61176,0,0,1-.241,1.17415Z"/><path d="M249.82732,300.79389q-.6805,0-1.36375-.05974c-8.03651-.70774-14.85538-7.6707-15.67522-15.62285a14.77526,14.77526,0,0,1-26.03556-7.81843c-.85834-7.66071,4.202-14.52993,9.79806-20.81215a.61189.61189,0,0,1,.91371.8141c-5.4075,6.07025-10.30072,12.67791-9.49574,19.86183a13.56021,13.56021,0,0,0,24.83665,5.89353.612.612,0,0,1,1.12442.33931c-.06773,7.89729,6.77387,15.43289,14.64128,16.12589,7.86855.69825,15.92093-5.5306,17.23469-13.31841a.62174.62174,0,0,1,.6355-.509,16.98623,16.98623,0,0,0,17.12646-21.9803.61179.61179,0,0,1,1.16891-.36169,18.20944,18.20944,0,0,1-17.82319,23.58389A17.90774,17.90774,0,0,1,249.82732,300.79389Z"/><path d="M293.66957,231.86278a.6118.6118,0,0,1-.30468-1.14266,10.47843,10.47843,0,0,0-5.92754-19.54563c-1.03081.07211-2.58665.17847-3.23951-1.04231a2.92848,2.92848,0,0,1-.08525-2.02725c.894-4.22184.627-7.44287-.81685-9.84692-1.92652-3.20828-6.21534-4.91334-10.42794-4.149-4.55253.82723-7.99815,3.99564-10.08688,6.50805a.61177.61177,0,0,1-.94083-.78223c2.21847-2.66851,5.89466-6.03651,10.809-6.92947,4.70225-.85709,9.51274,1.0873,11.69571,4.7225,1.61032,2.68213,1.926,6.19186.96469,10.73039a1.9928,1.9928,0,0,0-.03249,1.19715c.2577.48242,1.12918.46367,2.07637.39881a11.70174,11.70174,0,0,1,6.61964,21.8277A.6074.6074,0,0,1,293.66957,231.86278Z"/><path d="M237.975,227.0658a.61118.61118,0,0,1-.51878-.28633c-5.45248-8.68226-10.73688-17.62948-15.70609-26.59257a.61184.61184,0,0,1,1.07018-.59339c4.95858,8.944,10.23123,17.87156,15.67235,26.53521a.61174.61174,0,0,1-.51766.93708Z"/><path d="M246.87024,240.59929a.611.611,0,0,1-.50915-.27157l-5.1718-7.7352a.61184.61184,0,0,1,1.01719-.68025l5.17179,7.73507a.61186.61186,0,0,1-.508.95195Z"/><path d="M69.4371,156.78544a4.248,4.248,0,1,1,4.24821-4.24822A4.253,4.253,0,0,1,69.4371,156.78544Zm0-7.27241a3.02438,3.02438,0,1,0,3.02457,3.02419A3.02772,3.02772,0,0,0,69.4371,149.513Z"/><path d="M800.04966,205.34757a4.248,4.248,0,1,1,4.24821-4.24821A4.25312,4.25312,0,0,1,800.04966,205.34757Zm0-7.2724a3.02444,3.02444,0,1,0,3.02459,3.02419A3.02791,3.02791,0,0,0,800.04966,198.07517Z"/><path d="M449.94375,389.43623a4.2479,4.2479,0,1,1,4.24822-4.24809A4.25295,4.25295,0,0,1,449.94375,389.43623Zm0-7.27228a3.02438,3.02438,0,1,0,3.02469,3.02419A3.02767,3.02767,0,0,0,449.94375,382.164Z"/><path d="M355.13431,275.45321a4.24815,4.24815,0,1,1,4.24822-4.24821A4.253,4.253,0,0,1,355.13431,275.45321Zm0-7.27278a3.02457,3.02457,0,1,0,3.02457,3.02457A3.028,3.028,0,0,0,355.13431,268.18043Z"/><path d="M379.24847,86.40934a6.80936,6.80936,0,1,1,6.80925-6.80911A6.81675,6.81675,0,0,1,379.24847,86.40934Zm0-12.3952a5.58584,5.58584,0,1,0,5.58559,5.58609A5.59223,5.59223,0,0,0,379.24847,74.01414Z"/><path d="M722.39217,285.73106a.61186.61186,0,0,1-.23583-1.17666l15.31616-6.38457L740.294,261.116a.61125.61125,0,0,1,.57639-.511l17.15347-.76473,11.12854-24.03555a.61177.61177,0,0,1,1.11044.51378l-11.28505,24.37336a.61121.61121,0,0,1-.52816.35406L741.42,261.805l-2.796,16.899a.61159.61159,0,0,1-.36806.46479l-15.62886,6.5153A.61486.61486,0,0,1,722.39217,285.73106Z"/><path d="M173.75216,389.01531a.62319.62319,0,0,1-.17147-.02437.61178.61178,0,0,1-.416-.75874l9.33926-32.03794a.611.611,0,0,1,.74762-.41892l20.82614,5.65482,9.82755-19.354a.61089.61089,0,0,1,.49278-.33256l21.21107-1.83416a.61166.61166,0,1,1,.10548,1.21877l-20.87225,1.805-9.89917,19.49464a.60956.60956,0,0,1-.70575.31345l-20.72691-5.62821-9.17117,31.46167A.61173.61173,0,0,1,173.75216,389.01531Z"/><rect x="629.23643" y="209.78413" width="9.14023" height="9.14023" transform="translate(337.20897 -385.386) rotate(45)"/><path d="M633.8067,221.42922a.60969.60969,0,0,1-.43255-.17922l-6.46342-6.46305a.61158.61158,0,0,1,0-.86509l6.46342-6.46343a.61249.61249,0,0,1,.43255-.17922h0a.61255.61255,0,0,1,.43256.17922l6.463,6.46343a.6116.6116,0,0,1,0,.86509l-6.463,6.46305A.61.61,0,0,1,633.8067,221.42922Zm-5.59834-7.07482,5.59834,5.598,5.598-5.598-5.598-5.59834Z"/><rect x="219.1677" y="58.41441" width="9.14023" height="9.14023" transform="translate(110.06624 -139.75776) rotate(44.99948)"/><path d="M223.73778,70.05962a.61187.61187,0,0,1-.43255-.17934l-6.46293-6.46343a.61136.61136,0,0,1,0-.86509l6.46293-6.46293a.61136.61136,0,0,1,.86509,0l6.46305,6.46293a.61158.61158,0,0,1,0,.86509l-6.46305,6.46343A.61166.61166,0,0,1,223.73778,70.05962Zm-5.598-7.07531,5.598,5.59846,5.598-5.59846-5.598-5.59784Z"/><path d="M535.67762,390.59651a.61187.61187,0,0,1-.03974-1.2224,23.57347,23.57347,0,0,0,4.694-.79222.61186.61186,0,1,1,.32494,1.17978,24.84114,24.84114,0,0,1-4.93807.83359Zm-4.88022-.16247a.57549.57549,0,0,1-.08223-.00562,24.75823,24.75823,0,0,1-4.87083-1.16541.61179.61179,0,0,1,.40378-1.155,23.54111,23.54111,0,0,0,4.63,1.108.61173.61173,0,0,1-.08074,1.218Zm14.251-2.41842a.61174.61174,0,0,1-.27833-1.15666,23.71029,23.71029,0,0,0,4.00039-2.58128.61154.61154,0,1,1,.76311.95583,24.89469,24.89469,0,0,1-4.2076,2.71512A.60742.60742,0,0,1,545.04839,388.01562Zm-23.42616-.79148a.60886.60886,0,0,1-.31357-.08674,24.94115,24.94115,0,0,1-4.01638-2.99244.6117.6117,0,1,1,.826-.90246,23.71617,23.71617,0,0,0,3.81877,2.845.61174.61174,0,0,1-.31481,1.13667Zm31.022-5.27253a.61181.61181,0,0,1-.46929-1.00406,23.71225,23.71225,0,0,0,2.67138-3.94227.61174.61174,0,0,1,1.07693.58064,24.97219,24.97219,0,0,1-2.80911,4.14623A.61118.61118,0,0,1,552.64423,381.95161ZM514.45006,380.664a.61094.61094,0,0,1-.49529-.25171,24.854,24.854,0,0,1-2.52328-4.32544.61169.61169,0,0,1,1.11354-.50666,23.634,23.634,0,0,0,2.39906,4.112.61175.61175,0,0,1-.494.97182Zm42.806-7.26841a.6119.6119,0,0,1-.58628-.78735,23.60329,23.60329,0,0,0,.8977-4.67513.61179.61179,0,1,1,1.21878.10835,24.80092,24.80092,0,0,1-.94483,4.918A.61173.61173,0,0,1,557.256,373.39557Zm-46.82883-1.57883a.61193.61193,0,0,1-.596-.47629,24.96353,24.96353,0,0,1-.611-4.96908.64214.64214,0,0,0-.00625-.55677,25.01756,25.01756,0,0,1,.50016-4.9822.61172.61172,0,0,1,1.19878.24445,23.79123,23.79123,0,0,0-.47529,4.73775.584.584,0,0,0,.00575.52965,23.73127,23.73127,0,0,0,.58114,4.72538.61141.61141,0,0,1-.59725.74711Zm47.695-8.102a.61227.61227,0,0,1-.60739-.544,23.55027,23.55027,0,0,0-1.00242-4.65327.61174.61174,0,0,1,1.16376-.37755,24.8015,24.8015,0,0,1,1.05506,4.89534.61216.61216,0,0,1-.54053.676A.66336.66336,0,0,1,558.12222,363.71474ZM511.7688,356.904a.61165.61165,0,0,1-.56214-.85234,24.86678,24.86678,0,0,1,2.42619-4.38231.6118.6118,0,0,1,1.00517.69774,23.63449,23.63449,0,0,0-2.3067,4.16573A.61163.61163,0,0,1,511.7688,356.904Zm43.354-2.43267a.611.611,0,0,1-.53215-.30957,23.77575,23.77575,0,0,0-2.75811-3.88091.61166.61166,0,1,1,.92083-.80535,24.95459,24.95459,0,0,1,2.90071,4.08175.61195.61195,0,0,1-.53128.91408Zm-37.81262-5.55422a.61165.61165,0,0,1-.4228-1.05381,25.0388,25.0388,0,0,1,3.94791-3.08043.61186.61186,0,0,1,.652,1.03556,23.799,23.799,0,0,0-3.7543,2.92908A.60873.60873,0,0,1,517.31015,348.91711Zm31.41443-1.76443a.60648.60648,0,0,1-.37043-.12547,23.68134,23.68134,0,0,0-4.05787-2.49129.61159.61159,0,1,1,.53152-1.10167,24.84767,24.84767,0,0,1,4.268,2.62039.61167.61167,0,0,1-.37118,1.098Zm-23.18769-3.41174a.61172.61172,0,0,1-.2151-1.18441,24.702,24.702,0,0,1,4.84335-1.275.61162.61162,0,1,1,.19,1.2084,23.54689,23.54689,0,0,0-4.60315,1.212A.60812.60812,0,0,1,525.53689,343.74094Zm14.43369-.80922a.62183.62183,0,0,1-.14935-.01838,23.67061,23.67061,0,0,0-4.71088-.68662.61222.61222,0,0,1-.58439-.63851.60462.60462,0,0,1,.63826-.58426,24.93623,24.93623,0,0,1,4.955.72249.61184.61184,0,0,1-.14861,1.20528Z"/><path d="M683.13521,99.55h-.00765a8.8507,8.8507,0,0,1-4.93471-1.56846.61159.61159,0,1,1,.69462-1.00682,7.63222,7.63222,0,0,0,4.25524,1.35175.61179.61179,0,0,1-.0075,1.22353Zm4.63087-1.34463a.61172.61172,0,0,1-.33494-1.12392,7.66412,7.66412,0,0,0,2.8701-3.42374.61172.61172,0,0,1,1.12554.47954,8.88474,8.88474,0,0,1-3.32651,3.96864A.61.61,0,0,1,687.76608,98.20541Zm-12.23061-3.88766a.61162.61162,0,0,1-.56875-.3863,8.9109,8.9109,0,0,1,.88369-8.22947.61167.61167,0,0,1,1.01569.68187,7.688,7.688,0,0,0-.762,7.09668.612.612,0,0,1-.34332.79423A.60579.60579,0,0,1,675.53547,94.31775Zm15.84071-4.603a.61193.61193,0,0,1-.60028-.49791,7.63021,7.63021,0,0,0-2.07862-3.95176.61168.61168,0,0,1,.87059-.85947,8.84487,8.84487,0,0,1,2.41006,4.5834.61158.61158,0,0,1-.487.715A.63092.63092,0,0,1,691.37618,89.71473ZM680.093,83.60261a.61183.61183,0,0,1-.233-1.17778,8.83908,8.83908,0,0,1,3.37588-.66388h.00362a9.0098,9.0098,0,0,1,1.7743.17672.61192.61192,0,1,1-.24208,1.19966,7.74751,7.74751,0,0,0-1.53259-.15285h-.00288a7.61681,7.61681,0,0,0-2.91108.57227A.61205.61205,0,0,1,680.093,83.60261Z"/><path d="M357.81819,391.52209c-3.70769,0-6.43318-.95782-8.09425-2.896-6.34233-7.40063,4.58752-25.82309,14.87312-39.9746,14.17187-19.49789,36.51811-43.83251,62.9221-68.52168a.61179.61179,0,1,1,.83559.89383c-54.43817,50.90207-87.11636,95.82063-77.70161,106.80585,5.25978,6.13886,23.75235.83759,50.73685-14.54194,27.63126-15.74783,61.32277-40.253,94.86806-69.00072,33.54529-28.74805,62.92011-58.29,82.71343-83.18422,19.3293-24.3115,27.399-41.77451,22.13927-47.91175-5.31351-6.19973-24.06741-.74961-51.45609,14.95335a.61194.61194,0,0,1-.60864-1.0618c28.35738-16.25824,47.17814-21.475,52.99356-14.68778,5.76119,6.722-2.091,24.2905-22.11065,49.46947-19.84,24.95325-49.27213,54.55489-82.87478,83.35156-33.60252,28.797-67.36152,53.34962-95.05839,69.13495C382.10669,385.68592,366.97012,391.52209,357.81819,391.52209Z"/><path d="M443.25112,94.54059c2.2537,9.673,1.84016,21.61375,1.84016,21.61375l-8.75963,3.403s-5.37088,22.08416,28.48047,15.31679c6.57654-1.31476,25.61688-15.7747,25.61688-15.7747l-15.05621-4.30533s-1.44311-21.88707-2.01725-32.76081C465.44338,85.71872,452.74561,91.57676,443.25112,94.54059Z" style="fill:#fff"/><path d="M453.26414,136.77852c-6.53765.00037-11.357-1.58521-14.39159-4.74762-4.89334-5.09931-3.2094-12.31347-3.13528-12.61817a.61182.61182,0,0,1,.37292-.42579l8.37982-3.25515c.045-2.156.14436-12.55768-1.83466-21.05235a.61174.61174,0,0,1,.41355-.723c9.82243-3.06594,23.46978-9.42263,30.02844-12.47757a.61151.61151,0,0,1,.86921.52216c.523,9.907,1.78355,29.20221,1.98851,32.32313l14.642,4.18685a.61188.61188,0,0,1,.20183,1.07543c-.78211.59377-19.22869,14.56018-25.867,15.88731A60.23438,60.23438,0,0,1,453.26414,136.77852Zm-16.399-16.77227c-.24907,1.37962-.99694,7.1353,2.89822,11.18593,4.31657,4.489,12.70315,5.525,24.92888,3.08193,5.52112-1.10368,20.41185-11.97216,24.38323-14.92549l-13.871-3.96614a.61175.61175,0,0,1-.442-.548c-.01413-.21309-1.37275-20.84177-1.96939-31.86435-6.71976,3.12779-19.36754,8.96271-28.82079,11.98415,2.10611,9.54061,1.73456,21.10334,1.73043,21.2212a.61193.61193,0,0,1-.38993.54927Zm8.22611-3.85191h0Z"/><path d="M422.51347,33.63849c-3.09144.73936-6.17874-2.39081-6.24061-5.70082-.06174-3.31,2.26-6.30546,5.11318-7.75856,2.8531-1.45311,6.14211-1.61983,9.3439-2.08037-1.20666-3.20965.32081-7.07156,2.98557-9.12731a12.87471,12.87471,0,0,1,9.46913-2.14272,11.57649,11.57649,0,0,1,6.02662,2.31619,7.62021,7.62021,0,0,1,2.76574,6.07588c2.86734-3.61433,7.49574-6.044,11.8608-4.9982,4.3652,1.04568,7.65771,6.37932,7.9879,10.04964,2.12386-2.60677,4.90084-4.74925,8.17213-4.57278,6.4914.35018,7.95626,5.86791,5.03492,12.9666a7.48945,7.48945,0,0,1,10.249,4.80686c1.2229,3.73868-.148,9.68733-2.75137,12.61191a7.38788,7.38788,0,0,1-1.90814,1.44961c-1.01156,5.55222-2.27469,11.36527-4.18548,18.69266a66.89384,66.89384,0,0,1-6.581,15.98754,9.57588,9.57588,0,0,1-5.00582,4.61115c-.14733-2.2987-2.54328-3.43987-2.91509-5.72532-.45716-2.81148,1.35225-5.28639-.34268-7.77693A41.11761,41.11761,0,0,1,465.13356,58.039c-.847-4.38306-.87771-8.99508,1.19066-13.04121a14.02129,14.02129,0,0,1,3.06706-3.95589,23.70446,23.70446,0,0,1-1.37425-3.43749c-1.9,3.26527-3.29289,5.51186-8.05438,7.07307-3.47511,1.13941-7.60622-.24358-8.77588-3.55722-.741,3.34376-5.94052,8.06488-9.20779,8.39632s-4.49328-1.17516-5.80855-4.31033c-2.90134,2.5689-5.07469,5.18929-8.03514,6.313-4.52341,1.71706-10.11937-1.11517-11.61747-5.87991S417.90769,35.094,422.51347,33.63849Z" style="fill:#84cebc"/><path d="M474.84976,87.43765a.61185.61185,0,0,1-.61051-.57264,4.946,4.946,0,0,0-1.32375-2.63189,6.66936,6.66936,0,0,1-1.58433-3.03419,10.22487,10.22487,0,0,1,.16823-3.42136c.25156-1.51022.46852-2.81423-.41319-4.10987a41.48525,41.48525,0,0,1-6.55328-15.513c-1.03781-5.36975-.63014-9.76482,1.24664-13.43526a14.6131,14.6131,0,0,1,2.86411-3.81579c-.27659-.58452-.53317-1.19591-.77375-1.84391a12.41131,12.41131,0,0,1-7.71657,6.199,7.76249,7.76249,0,0,1-8.87272-2.599c-1.61509,3.36475-6.1175,7.14892-9.23992,7.46549-3.30814.33581-4.79137-1.09405-6.08963-3.89765-.48566.44529-.95382.88983-1.41136,1.32388-1.97863,1.878-3.84777,3.65194-6.18734,4.53978a9.25988,9.25988,0,0,1-7.28017-.458,9.83631,9.83631,0,0,1-5.13817-5.81042,10.705,10.705,0,0,1,4.17885-11.69446,5.783,5.783,0,0,1-1.77865-.95045,6.95139,6.95139,0,0,1-2.673-5.22878c-.07087-3.79168,2.68487-6.90835,5.44724-8.31509a23.20489,23.20489,0,0,1,7.76132-1.90652c.3538-.04487.70811-.08949,1.06154-.13623A9.1636,9.1636,0,0,1,433.342,8.48715a13.42152,13.42152,0,0,1,9.91717-2.26558,12.11065,12.11065,0,0,1,6.34132,2.45154,8.24622,8.24622,0,0,1,2.89259,5.02482c3.25877-3.40861,7.63384-4.99332,11.4875-4.07012,4.047.9692,7.32852,5.37663,8.23635,9.26079,2.476-2.66913,5.09918-3.94065,7.8138-3.80005,2.73437.1476,4.79449,1.199,5.95765,3.04106,1.42548,2.25771,1.45035,5.59684.093,9.49849a7.97409,7.97409,0,0,1,5.06681.38731,8.40618,8.40618,0,0,1,4.71525,5.2674c1.27128,3.887-.07248,10.05938-2.87609,13.2088a7.58244,7.58244,0,0,1-1.81416,1.43186c-1.083,5.903-2.40218,11.777-4.14449,18.45833a67.31194,67.31194,0,0,1-6.644,16.14026,10.15363,10.15363,0,0,1-5.27627,4.85823A.61337.61337,0,0,1,474.84976,87.43765Zm-6.833-50.445a.64013.64013,0,0,1,.06711.00362.61189.61189,0,0,1,.51616.42293,22.95448,22.95448,0,0,0,1.33825,3.349.61131.61131,0,0,1-.13585.72649,13.49607,13.49607,0,0,0-2.93358,3.78155c-1.74743,3.41837-2.11874,7.555-1.13465,12.64666a40.26765,40.26765,0,0,0,6.36355,15.05659c1.15766,1.70106.87847,3.3775.60839,4.99932a9.29081,9.29081,0,0,0-.16747,3.02332,5.65315,5.65315,0,0,0,1.344,2.48141,7.395,7.395,0,0,1,1.42634,2.43468,8.7945,8.7945,0,0,0,4.01776-4.01114,66.02485,66.02485,0,0,0,6.51779-15.83431c1.762-6.75625,3.08893-12.68153,4.17585-18.64793a.611.611,0,0,1,.30345-.42454,6.82771,6.82771,0,0,0,1.7493-1.322c2.50966-2.81923,3.7618-8.54629,2.62714-12.01515a7.20011,7.20011,0,0,0-4.02688-4.52016,6.56332,6.56332,0,0,0-5.37063.07186.61177.61177,0,0,1-.836-.7816c1.67444-4.06875,1.8473-7.49587.48691-9.65034-.95582-1.51372-2.63451-2.34557-4.989-2.47242-2.61739-.143-5.19892,1.32151-7.66471,4.3482a.61174.61174,0,0,1-1.08367-.33157c-.2962-3.28951-3.30064-8.49855-7.52111-9.50936-3.79955-.911-8.21148.96694-11.23892,4.78324a.61179.61179,0,0,1-1.09067-.4033,7.04831,7.04831,0,0,0-2.54353-5.5806A10.92424,10.92424,0,0,0,443.11014,7.436a12.22731,12.22731,0,0,0-9.02108,2.01975c-2.63138,2.03025-3.82952,5.65333-2.78636,8.42781a.612.612,0,0,1-.48577.82085c-.596.08561-1.19529.16135-1.79405.23683a21.96285,21.96285,0,0,0-7.35914,1.78292c-2.42268,1.2339-4.8401,3.93952-4.77936,7.20229a5.70079,5.70079,0,0,0,2.19884,4.28371,3.8723,3.8723,0,0,0,3.28789.83322.61182.61182,0,0,1,.32669,1.17841c-4.26821,1.349-6.988,6.80849-5.59634,11.234a8.60792,8.60792,0,0,0,4.50492,5.07644,8.0289,8.0289,0,0,0,6.31183.41505c2.10973-.80061,3.81029-2.41481,5.77944-4.28359.65774-.62438,1.33824-1.27,2.06712-1.91564a.61192.61192,0,0,1,.96982.22146c1.24227,2.9607,2.28694,4.23084,5.18265,3.93852,3.04219-.30869,7.98616-4.82386,8.67214-7.92016a.61177.61177,0,0,1,1.17416-.07149c1.09867,3.11255,5.02869,4.15748,8.00864,3.17966,4.64589-1.52334,5.93365-3.73655,7.71607-6.79936A.61166.61166,0,0,1,468.01678,36.99262Z"/><path d="M427.53365,52.23042c.00063-.16834.00238-.34068.005-.51578.20046-.05774.39993-.12072.59664-.19546,2.96045-1.12367,5.1338-3.74406,8.03514-6.313,1.31527,3.13517,2.54129,4.64177,5.80855,4.31033s8.46682-5.05256,9.20779-8.39632c1.16966,3.31364,5.30077,4.69663,8.77588,3.55722,4.76149-1.56121,6.15436-3.8078,8.05438-7.07307a17.27087,17.27087,0,0,0,6.30046,9.30428,13.23183,13.23183,0,0,0,4.18522,1.97576c.05224.641.10948,1.26376.17735,1.85765a54.60532,54.60532,0,0,1,.31094,11.81469c3.70633-3.0763,6.77562-2.56152,9.07707-.23146a5.89668,5.89668,0,0,1-.1406,8.299c-2.25234,2.29157-6.2061,3.15991-9.681,2.42542-.90333,5.85342-2.24669,17.57725-6.31321,22.759-4.32443,5.5106-11.9749,9.03807-19.88594,9.1688-7.911.13085-15.87331-3.13842-20.69654-8.49768-5.47861-6.08749-6.69876-14.14313-6.23747-21.6921C425.57452,67.23877,427.51041,59.79627,427.53365,52.23042Z" style="fill:#fff"/><path d="M451.58532,105.59329c-7.944,0-15.83469-3.31051-20.689-8.70414-4.81336-5.34826-6.96432-12.79663-6.39357-22.1389.20247-3.31426.693-6.64989,1.16754-9.87567a89.5607,89.5607,0,0,0,1.25164-12.646h0c.00063-.17084.00238-.34569.005-.5229a.61158.61158,0,0,1,.44254-.57877c.18422-.053.36731-.11073.54815-.17959,2.11036-.80061,3.81092-2.41481,5.78007-4.28359.65774-.62438,1.33824-1.27,2.06712-1.91564a.612.612,0,0,1,.96982.22133c1.24227,2.96083,2.28694,4.231,5.18265,3.93865,3.04219-.30869,7.98616-4.82386,8.67214-7.92016a.61177.61177,0,0,1,1.17416-.07149c1.09867,3.11255,5.02869,4.15748,8.00864,3.17966,4.64589-1.52334,5.93365-3.73655,7.71607-6.79936a.61173.61173,0,0,1,1.1118.12248,16.8313,16.8313,0,0,0,6.07325,8.992,12.6459,12.6459,0,0,0,3.99313,1.8839.61164.61164,0,0,1,.446.53977c.05912.72487.11486,1.30876.17549,1.83766l.01685.1486a57.88566,57.88566,0,0,1,.4123,10.43032c3.18529-2.11574,6.26909-1.90465,8.78625.644a6.47692,6.47692,0,0,1-.13947,9.15793c-2.18872,2.22647-5.9834,3.27952-9.60747,2.71188-.064.42667-.13023.87871-.2,1.35225-.95295,6.48767-2.393,16.292-6.14173,21.06909-4.44656,5.66608-12.247,9.26891-20.35723,9.40276C451.90014,105.59167,451.74267,105.59329,451.58532,105.59329ZM428.14541,52.23255a90.53238,90.53238,0,0,1-1.26451,12.82012c-.47079,3.20066-.9577,6.50967-1.157,9.77244-.55,9.00209,1.4961,16.15014,6.08164,21.24507,4.6285,5.14317,12.17211,8.29921,19.77782,8.29959.1516,0,.30232-.00125.45392-.004,7.75081-.12785,15.19031-3.55159,19.41478-8.93435C475,90.91,476.46848,80.91249,477.34593,74.93934c.10487-.71411.20271-1.37962.29582-1.983a.61163.61163,0,0,1,.73111-.50541c3.41838.72324,7.08194-.18409,9.11844-2.25558a5.263,5.263,0,0,0,.14136-7.44038c-2.3682-2.3973-5.14431-2.30569-8.251.27245a.61186.61186,0,0,1-.99908-.5354,53.57921,53.57921,0,0,0-.29332-11.532l-.017-.14859c-.04974-.43567-.09635-.90646-.14408-1.45773a13.76233,13.76233,0,0,1-3.96666-1.94764,17.25471,17.25471,0,0,1-6.093-8.344,12.41239,12.41239,0,0,1-7.7152,6.1966,7.7623,7.7623,0,0,1-8.87272-2.599c-1.61509,3.36475-6.1175,7.14892-9.23992,7.46549-3.306.33694-4.79123-1.09367-6.08963-3.89765-.48566.44529-.95382.88983-1.41136,1.32388-1.97863,1.878-3.84777,3.65194-6.18734,4.53978-.06675.02549-.13524.05012-.20673.07449l-.00025.06686Z"/><path d="M434.5526,63.18539a1.79307,1.79307,0,1,1,1.97064,1.48386A1.74334,1.74334,0,0,1,434.5526,63.18539Z"/><path d="M459.50123,64.53127a1.79307,1.79307,0,1,1,1.97064,1.48385A1.74347,1.74347,0,0,1,459.50123,64.53127Z"/><path d="M452.08186,93.79a8.97272,8.97272,0,0,1-2.29445-.29432.61177.61177,0,0,1,.31269-1.18291,8.22806,8.22806,0,0,0,8.20035-2.5534.61187.61187,0,0,1,.92971.79573A9.49442,9.49442,0,0,1,452.08186,93.79Z"/><path d="M447.83364,84.41546a11.18935,11.18935,0,0,1-3.76517-.71012,4.74455,4.74455,0,0,1-2.05937-1.25264,3.91536,3.91536,0,0,1-.7125-3.41724,10.98768,10.98768,0,0,1,1.01857-2.59377l.18159-.36831a32.2387,32.2387,0,0,0,3.24652-14.22174.61153.61153,0,0,1,.60851-.615h.00325a.6119.6119,0,0,1,.61176.60864,33.46638,33.46638,0,0,1-3.37037,14.76414l-.185.37555a9.93976,9.93976,0,0,0-.9177,2.30295,2.7558,2.7558,0,0,0,.43879,2.36232,3.66788,3.66788,0,0,0,1.54846.9032,9.09118,9.09118,0,0,0,4.42843.5584,5.31257,5.31257,0,0,0,3.59959-2.13.61162.61162,0,1,1,1.01556.68187,6.46106,6.46106,0,0,1-4.42956,2.65739A8.312,8.312,0,0,1,447.83364,84.41546Z"/><path d="M478.5927,67.01669a.612.612,0,0,1-.60739-.69188c.27107-2.056.37218-3.15366.55565-5.14667a.61179.61179,0,1,1,1.2184.11236c-.18485,2.00812-.28683,3.11454-.5609,5.19441A.61174.61174,0,0,1,478.5927,67.01669Z"/><path d="M421.13123,47.20023a.20315.20315,0,0,1-.146-.06174,6.7886,6.7886,0,0,1-1.541-6.74612.20395.20395,0,0,1,.38667.12985,6.37171,6.37171,0,0,0,1.44624,6.33182.20384.20384,0,0,1-.146.34619Z"/><path d="M487.14436,44.86641a.20391.20391,0,0,1-.135-.35693,9.82106,9.82106,0,0,0,2.70987-10.36421.20395.20395,0,0,1,.38518-.13422,10.23842,10.23842,0,0,1-2.8251,10.80437A.20313.20313,0,0,1,487.14436,44.86641Z"/><path d="M326.14043,168.32155c-7.48261-17.20506-16.25149-48.8657-25.12347-65.68484-5.72806-3.65182-12.22824-10.07-15.58949-16.44195-1.36774-2.593-1.581-3.72294-.13547-5.97389,1.05618-1.64483,3.52322-1.69682,5.21378-1.09868-1.05605-1.58983-3.04656-2.8171-1.26664-5.03756a3.05394,3.05394,0,0,1,3.29327-1.26327c-1.30814-3.392,2.18122-6.29308,5.09419-3.38012-2.59116-3.97927-4.95147-7.53761-7.53662-11.17893-1.60007-2.25371-3.26477-5.00133-1.92626-6.34,1.71618-1.71606,4.31957.62251,7.42437,4.33032a167.12433,167.12433,0,0,0,12.60079,13.97891c5.21891,5.21891,10.78363,15.67585,8.61278,20.42434,1.74231,7.22954,28.14129,49.13965,36.79769,57.79617,3.16029,3.16029.58089,6.20386-.16184,10.611-.89709,5.32339-4.7845,24.06592-18.30262,17.971C331.304,175.307,326.58785,169.35036,326.14043,168.32155Z" style="fill:#fff"/><path d="M340.17433,178.85023a12.90821,12.90821,0,0,1-5.291-1.25827c-4.02088-1.813-8.79823-7.86342-9.30377-9.02645h0c-3.11368-7.15918-6.41443-16.71291-9.909-26.82754-4.90472-14.19612-9.97553-28.87265-15.1197-38.67346-5.23791-3.37425-12.07327-9.77631-15.66423-16.5843-1.469-2.78449-1.69081-4.12711-.10935-6.59a4.43871,4.43871,0,0,1,4.21348-1.70794c-.91547-1.13991-1.77842-2.547-.22885-4.48029a4.00676,4.00676,0,0,1,2.93759-1.6267,3.844,3.844,0,0,1,1.58933-3.9079,3.34611,3.34611,0,0,1,2.46391-.47566c-1.91564-2.91946-3.966-5.983-6.1616-9.07532-1.845-2.59852-3.5091-5.47736-1.85978-7.12668a2.39407,2.39407,0,0,1,1.86015-.74987c1.6067.07087,3.47986,1.55447,6.46568,5.11993l.1221.14585A165.11682,165.11682,0,0,0,308.62155,69.799c5.07794,5.0778,10.95072,15.64647,8.82524,20.90537,2.0425,7.28678,27.76911,48.4989,36.5851,57.315,2.53254,2.53229,1.73193,5.08894.88434,7.79531a24.912,24.912,0,0,0-.87559,3.35c-.935,5.54934-3.41574,15.34528-9.52486,18.60493A9.09334,9.09334,0,0,1,340.17433,178.85023Zm-51.7058-99.46509a3.05356,3.05356,0,0,0-2.66175,1.16616c-1.29064,2.01013-1.13617,2.89759.16184,5.35776,3.5181,6.66977,10.25824,12.94835,15.37715,16.212a.61217.61217,0,0,1,.21234.23021c5.21341,9.88354,10.32521,24.6788,15.2688,38.98728,3.4866,10.09138,6.78,19.62324,9.87454,26.73867v.0005c.40293.9267,5.01634,6.74463,8.68489,8.39907,3.22,1.45136,6.09788,1.52384,8.55342.21346,5.64733-3.01344,7.99664-12.40108,8.89448-17.72859a26.22443,26.22443,0,0,1,.91447-3.5126c.82821-2.645,1.42659-4.55591-.58191-6.56454-8.48218-8.48192-35.07938-50.28193-36.95989-58.08524a.61274.61274,0,0,1,.03848-.39793c1.95476-4.27595-3.04556-14.29372-8.48893-19.73722A165.9505,165.9505,0,0,1,295.241,56.791l-.12185-.14572c-1.65607-1.97751-4.03663-4.61464-5.58159-4.68313a1.19694,1.19694,0,0,0-.9412.39268c-1.14067,1.14078,1.21752,4.462,1.99238,5.55334,2.73686,3.855,5.24627,7.66071,7.55035,11.19955a.61164.61164,0,0,1-.94508.76624c-1.0578-1.05781-2.26808-1.31151-3.23815-.681a2.77353,2.77353,0,0,0-.85271,3.40812.61187.61187,0,0,1-.784.79385,2.498,2.498,0,0,0-2.60265,1.07255c-1.0423,1.3-.54265,2.02213.50778,3.28952a12.4003,12.4003,0,0,1,.79111,1.02668.61176.61176,0,0,1-.71374.91533A5.586,5.586,0,0,0,288.46853,79.38514Z"/><path d="M295.07082,89.07947a3.1764,3.1764,0,0,1-1.13517-.21583,6.82751,6.82751,0,0,1-1.99838-1.35787l-2.607-2.28421a.61171.61171,0,0,1,.80649-.91995l2.60688,2.2842a5.8275,5.8275,0,0,0,1.63032,1.13542,1.28682,1.28682,0,0,0,1.83616-1.6317,4.93507,4.93507,0,0,0-1.05393-1.76567,16.12861,16.12861,0,0,0-3.25777-3.28352c-.45242-.35756-1.01531-.80285-1.7858-1.44936a.6118.6118,0,0,1,.78623-.93757c.75724.63525,1.31239,1.07417,1.75855,1.42711a17.19782,17.19782,0,0,1,3.44549,3.46835,6.04792,6.04792,0,0,1,1.29051,2.22922,2.68768,2.68768,0,0,1-.74874,2.76811A2.44551,2.44551,0,0,1,295.07082,89.07947Z"/><path d="M299.80956,86.8064a4.65686,4.65686,0,0,1-1.69944-.4078c-.65163-.26246-1.30563-.54765-1.94325-.84722a.61155.61155,0,1,1,.51977-1.10717c.61738.28957,1.25027.56552,1.88127.8196a2.21906,2.21906,0,0,0,1.68857.22108c.55427-.28282.68012-1.1869.518-1.93414-.25157-1.15941-1.92714-3.85454-8.48066-10.11125l-.18411-.1761a.61169.61169,0,1,1,.84547-.88421l.18372.17522c5.51785,5.26815,8.40657,8.77987,8.83124,10.73676a2.89876,2.89876,0,0,1-1.1579,3.28339A2.16847,2.16847,0,0,1,299.80956,86.8064Z"/><path d="M304.53606,91.26769a.61164.61164,0,0,1-.54165-.32619c-1.56809-2.97094-.248-6.009.71612-8.2271.363-.83559.9117-2.09773.693-2.33194-.72124-.77073-3.82716-1.03081-5.31964-1.15591a8.15752,8.15752,0,0,1-1.45285-.17922,4.04587,4.04587,0,0,1-2.65139-2.08424,2.08318,2.08318,0,0,1-.084-1.64569,5.2142,5.2142,0,0,1,2.18221-2.26433c1.56121-.51778,5.286-.40305,8.65453-.25533.43416.01912.81.03587,1.1023.04549,1.26313.04137,4.97444,1.388,5.41074,2.87522a.61178.61178,0,0,1-1.17416.34419c-.17983-.613-3.05769-1.95689-4.27657-1.99664-.296-.00962-.67652-.02637-1.116-.04586-2.35482-.10311-6.73739-.296-8.21574.19434a4.42585,4.42585,0,0,0-1.4481,1.59758.91068.91068,0,0,0,.08248.65275,2.89944,2.89944,0,0,0,1.91377,1.41949c.12535.03549.68288.08211,1.17466.1231,2.5644.21471,5.14867.51028,6.11124,1.53947.76761.82047.224,2.07149-.46429,3.65507-.9132,2.10173-2.05,4.71725-.75611,7.16842a.61208.61208,0,0,1-.54052.89733Z"/><path d="M301.01758,73.895a.61113.61113,0,0,1-.5299-.30507,23.5675,23.5675,0,0,0-2.32719-2.73662c-.46342-.49991-.901-.97182-1.20478-1.32988a.6119.6119,0,0,1,.93308-.79185c.2862.33781.715.80022,1.169,1.29013a23.0592,23.0592,0,0,1,2.48854,2.95483.61156.61156,0,0,1-.52878.91846Z"/><path d="M302.20636,84.68391a1.92324,1.92324,0,0,1-.46191-.055.61161.61161,0,1,1,.29282-1.18765,1.27861,1.27861,0,0,0,1.21515-.57077c.52915-.72762.40431-1.83566-.34269-3.03969a.61193.61193,0,0,1,1.03994-.64525c1.4521,2.34119.68824,3.86016.29244,4.40468A2.59894,2.59894,0,0,1,302.20636,84.68391Z"/><path d="M550.41789,195.73385c-4.70637-24.7298-4.741-51.27526-24.66218-67.9038-9.56223-7.98177-32.23115-11.42764-45.51969-12.28035-.81373,12.86574-13.39115,15.92592-21.441,15.40939-13.44539-.86271-15.8378-3.50572-19.25306-13.71408-3.01757,1.20178-21.17683,2.11386-32.97,12.64941-21.89007,19.556-50.55851,16.51506-52.11958,18.07615-2.17149,2.17147,3.169,21.151-16.13178,30.0893-8.12037,3.76056,40.54262,11.49725,74.05691,2.62677-1.25589,17.539,9.00446,66.11138,12.64066,85.80711,34.95841,24.37811,102.89419-.59514,102.89419-.59514s-5.49723-16.18313-5.49723-28.38975c0-6.0535,21.1742,6.4723,23.98556,6.97121.9337.1656,3.05356-.59914,3.42636-1.4711C552.19032,237.48074,554.74747,218.484,550.41789,195.73385Z"/><path d="M466.683,277.75891c-14.77152.00037-30.2569-2.56428-42.01485-10.76338a.61219.61219,0,0,1-.2517-.39081c-.5795-3.13841-1.31676-6.95721-2.17072-11.37864-4.51-23.356-11.283-58.42943-10.52955-73.73559-17.73459,4.52566-37.46369,4.1676-47.73766,3.54072-12.73077-.777-26.12616-2.9712-27.09686-5.66208-.15209-.42142-.20071-1.2239,1.18178-1.86441,14.16476-6.55978,14.745-18.71041,15.05684-25.23795.11974-2.508.19223-4.0215.89933-4.72887.48341-.48354,1.59421-.58464,5.0327-.832,9.04207-.65051,30.2169-2.17435,47.1119-17.26743,9.34327-8.347,22.353-10.68777,29.34219-11.94516a28.39385,28.39385,0,0,0,3.809-.81685.61174.61174,0,0,1,.80648.37443c3.3525,10.02014,5.48011,12.44882,18.7123,13.29766a25.317,25.317,0,0,0,13.1028-2.61314,14.11492,14.11492,0,0,0,7.68845-12.22436.61185.61185,0,0,1,.64977-.57189c15.4875.99369,36.79417,4.8431,45.87249,12.42145,16.3576,13.65372,19.508,34.283,22.555,54.233.705,4.6174,1.43424,9.39289,2.31607,14.02616h0c4.14661,21.78721,2.07587,41.30135-.62926,47.6298-.51428,1.20365-2.96532,2.03437-4.09561,1.83254a36.842,36.842,0,0,1-5.78956-2.53916c-5.21415-2.52191-14.91936-7.21654-17.1157-5.83967a.82536.82536,0,0,0-.36181.80573c0,11.96253,5.40987,28.03193,5.46474,28.1929a.61216.61216,0,0,1-.36831.77111,219.54309,219.54309,0,0,1-38.45812,9.47A156.86788,156.86788,0,0,1,466.683,277.75891Zm-41.10914-11.62447c17.89294,12.32821,44.612,11.487,63.91,8.59865a220.62116,220.62116,0,0,0,37.661-9.21041c-.96882-2.99882-5.34163-17.14008-5.34163-28.01369a2.03427,2.03427,0,0,1,.93534-1.84254c2.56078-1.60432,9.80194,1.6657,18.29835,5.77518a43.9064,43.9064,0,0,0,5.47036,2.43593,3.7926,3.7926,0,0,0,2.75736-1.10917c2.05512-4.80811,5.04782-23.29869.552-46.92006h0c-.88583-4.65552-1.6167-9.44138-2.32369-14.0699-3.151-20.63293-6.12724-40.12132-22.12953-53.47872-8.736-7.29227-29.31743-11.05845-44.56512-12.09963a15.38821,15.38821,0,0,1-8.27746,12.61029,26.56785,26.56785,0,0,1-13.7652,2.75936c-13.33516-.85559-16.17826-3.52922-19.60125-13.55974-.7866.21184-1.95176.4213-3.43136.68787-6.87036,1.23578-19.65861,3.53672-28.74356,11.65272-17.2063,15.37153-38.67283,16.91612-47.83926,17.57562a21.37,21.37,0,0,0-4.28383.501c-.34456.34856-.43067,2.15286-.514,3.89766-.32419,6.78649-.92758,19.419-15.76483,26.29025-.47279.21871-.54778.37443-.5484.37568.31507,1.14379,9.21017,3.77531,25.82159,4.80649,17.69835,1.09967,35.32846-.25045,48.37-3.70207a.61162.61162,0,0,1,.76674.63526c-1.04967,14.66141,6.155,51.9715,10.45968,74.26375C424.27926,259.30258,425.00051,263.03889,425.57389,266.13444Z"/><path d="M514.34357,217.953a.612.612,0,0,1-.581-.41979C506.6285,195.92881,502.592,182.26309,502.592,152.642a.61176.61176,0,0,1,1.22352,0c0,29.43355,4.01414,43.02241,11.109,64.50731a.61222.61222,0,0,1-.38918.7731A.62049.62049,0,0,1,514.34357,217.953Z"/><path d="M412.37721,181.29852a.60983.60983,0,0,1-.40767-.15584c-.36319-.32494-.36844-.681-.4313-5.03632-.04687-3.24165-.1251-8.66677-.43042-16.90775a.61181.61181,0,1,1,1.22277-.04536c.306,8.25484.38418,13.68871.43117,16.93524.03362,2.33756.05637,3.9104.1386,4.28033a.61212.61212,0,0,1-.52315.9297Zm.40806-1.06793.00061.00088Z"/><path d="M450.04361,169.22313c-13.41977,0-25.61076-1.18615-32.03994-4.4588a.20387.20387,0,1,1,.18509-.3633c13.27167,6.75537,51.39073,4.54653,73.77471,1.41236a.20393.20393,0,0,1,.05661.40392A322.89736,322.89736,0,0,1,450.04361,169.22313Z" style="fill:#fff"/><path d="M464.371,188.07014a197.79981,197.79981,0,0,1-46.32318-5.82142.20374.20374,0,1,1,.09686-.3958c18.743,4.581,47.11,8.80974,75.80946,2.939a.204.204,0,0,1,.08161.3998A148.24191,148.24191,0,0,1,464.371,188.07014Z" style="fill:#fff"/><path d="M551.98585,223.88714a.20243.20243,0,0,1-.15534-.07212,39.03712,39.03712,0,0,0-35.68339-12.97547.204.204,0,0,1-.06848-.4023,39.45133,39.45133,0,0,1,36.06256,13.11407.20407.20407,0,0,1-.15535.33582Z" style="fill:#fff"/><path d="M550.42014,214.55836a.20321.20321,0,0,1-.07611-.01474,12.82462,12.82462,0,0,1-3.61208-2.54628c-.3823-.34169-.77748-.69537-1.17578-1.02156a17.437,17.437,0,0,0-8.496-3.76143.20373.20373,0,1,1,.05974-.40305,17.841,17.841,0,0,1,8.69489,3.849c.405.33182.80372.68825,1.18928,1.03281a12.5135,12.5135,0,0,0,3.49222,2.47217.20389.20389,0,0,1-.07611.393Z" style="fill:#fff"/><path d="M357.49337,166.87719a.20389.20389,0,0,1-.18884-.2812,42.55126,42.55126,0,0,0,3.13155-17.13557.20417.20417,0,0,1,.19846-.20946.201.201,0,0,1,.20946.19834,42.965,42.965,0,0,1-3.16178,17.30129A.20435.20435,0,0,1,357.49337,166.87719Z" style="fill:#fff"/><path d="M365.52652,156.033a.19571.19571,0,0,1-.0455-.00512.20382.20382,0,0,1-.15372-.24371,19.61557,19.61557,0,0,0,.39155-6.309.20391.20391,0,0,1,.4058-.04062,20.02811,20.02811,0,0,1-.39941,6.43956A.2041.2041,0,0,1,365.52652,156.033Z" style="fill:#fff"/><path d="M516.1125,219.2355a.61177.61177,0,0,1-.58989-.45129,317.80044,317.80044,0,0,1-9.79644-54.25608.61174.61174,0,1,1,1.2184-.11148,316.5809,316.5809,0,0,0,9.75857,54.04649.61187.61187,0,0,1-.59064.77236Z" style="fill:#fff"/><path d="M410.93623,184.61578h-.00963a.61192.61192,0,0,1-.60238-.62088l.30744-20.17414a.61193.61193,0,0,1,.61163-.60264h.0095a.61178.61178,0,0,1,.60239.621l-.30744,20.174A.61166.61166,0,0,1,410.93623,184.61578Z" style="fill:#fff"/><rect x="391.80552" y="153.20652" width="70.98103" height="92.52115" transform="translate(-30.33234 85.68972) rotate(-11.06174)" style="fill:#fff"/><path d="M401.34075,252.2895a.61237.61237,0,0,1-.60038-.49428l-17.75172-90.80231a.61118.61118,0,0,1,.48316-.71774l69.66224-13.61873a.60928.60928,0,0,1,.71773.48278l17.75171,90.80194a.61138.61138,0,0,1-.483.71761l-69.66235,13.61911A.582.582,0,0,1,401.34075,252.2895Zm-17.034-90.93091L401.82391,250.96l68.46145-13.38452-17.51713-89.601Z"/><path d="M434.0457,353.91243a.61183.61183,0,0,1-.60339-.51528c-3.85265-24.12166-4.91772-48.92581-5.94752-72.91325q-.27144-6.32076-.5574-12.63965a.61186.61186,0,0,1,.58289-.63926.61933.61933,0,0,1,.63951.58277q.293,6.32021.55739,12.64365c1.02844,23.95269,2.092,48.72111,5.93353,72.7729a.61214.61214,0,0,1-.50766.70062A.6269.6269,0,0,1,434.0457,353.91243Z"/><path d="M486.81205,313.67376a.61135.61135,0,0,1-.56427-.37481c-1.7678-4.21072-2.789-7.1373-3.68969-9.71945a65.7646,65.7646,0,0,0-2.79522-7.11543,93.55661,93.55661,0,0,1-10.92062.12435l-.712-.01874a.612.612,0,0,1,.03112-1.22353l.71387.01912c2.891.07886,8.90635.241,11.12818-.17771a.61575.61575,0,0,1,.663.33293,64.3851,64.3851,0,0,1,3.04694,7.656c.89494,2.5654,1.90938,5.47324,3.66243,9.64859a.61184.61184,0,0,1-.56377.84872Z"/><path d="M528.31949,276.32143a.61182.61182,0,0,1-.58365-.42893c-.18671-.59626-.48078-1.39649-.79222-2.24395-.83522-2.27146-1.87453-5.09894-1.95564-6.92147a.61168.61168,0,0,1,.58414-.63813.60118.60118,0,0,1,.63826.58389c.07248,1.63307,1.07555,4.36131,1.88152,6.55353.31682.86184.61589,1.67557.81173,2.30045a.6117.6117,0,0,1-.58414.79461Z"/><path d="M539.07324,220.55588c-4.86709-1.87516-51.38548-17.89281-57.88178-25.19984-4.14885-4.66663-15.99628-14.03815-19.383-14.54355-5.67632-.847-9.34925-2.099-14.12826-1.20353-3.99.74749-11.177,4.22072-10.95235,5.62333.70039,4.37294,9.80169-1.56146,10.74526-1.54334,3.29289.06362,6.58978.27783,10.322,2.745-4.03126,1.50572-10.85912,4.78636-12.298,6.51654-1.51435,1.82091-4.44006,9.62484-4.64477,10.90635-.35518,2.22309,1.292,3.75418,3.00145.99095.09235-.14948,3.77867-5.12518,4.80935-7.84468.416-1.09754,7.36714-4.13486,10.86512-4.5844-3.75606.00275-9.91042,2.87222-10.897,4.61615-.23459.4148-3.625,7.955-3.76368,8.64827-.58027,2.89959,2.09137,3.03032,3.504,1.00419,1.6-2.29457,2.98308-5.63708,3.44037-6.10149,2.50228-2.54128,5.90178-2.69251,8.59215-3.23691-2.70112.35231-5.799.8161-8.51017,3.02644-.48316.39381-4.65576,6.80312-2.60077,8.60779,1.10292.96857,3.58584-.56365,5.659-5.34626a44.46363,44.46363,0,0,1,5.06769-.43017c1.22927-.10574,7.92866,7.19466,13.14558,8.23872,1.04654.20946,19.67684,21.52664,45.66365,34.45737,2.32182,1.15541,22.66906,9.19317,31.06937-3.85116C551.95986,238.85061,553.73628,226.20558,539.07324,220.55588Z" style="fill:#fff"/><path d="M534.48234,250.0128a40.18274,40.18274,0,0,1-15.92592-3.56222c-20.77953-10.34-36.97853-26.12066-43.07677-32.06144-1.18391-1.15353-2.21284-2.156-2.51079-2.35956-3.41337-.71762-7.25714-3.83191-10.06976-6.11087a17.697,17.697,0,0,0-2.86309-2.09936c-.599.05049-1.14192.074-1.66744.09673a23.19364,23.19364,0,0,0-2.98932.26808c-1.42849,3.17241-3.22716,5.26852-4.845,5.63133a1.8201,1.8201,0,0,1-1.64495-.37268,2.33518,2.33518,0,0,1-.755-1.58608,2.7325,2.7325,0,0,1-2.78161.65525c-.36206-.15459-1.51035-.82372-1.08493-2.94858a3.63308,3.63308,0,0,1,.1451-.448c-.02262.03187-.03862.05412-.04674.06649-1.24289,2.00975-2.42743,1.83728-2.87922,1.66882-.96282-.35806-1.47235-1.629-1.23889-3.09031.22446-1.40474,3.19466-9.296,4.77861-11.201,1.45723-1.752,7.55085-4.69263,11.39727-6.24722-3.0983-1.74205-5.89641-1.95113-8.9306-2.01087a15.36581,15.36581,0,0,0-1.6302.73723c-2.58289,1.25777-6.4858,3.15879-8.52479,2.10012a2.33016,2.33016,0,0,1-1.21453-1.80942c-.35456-2.21371,8.131-5.70069,11.44363-6.3217,3.70882-.69413,6.69-.1501,10.46356.53977,1.217.22259,2.47517.45242,3.86768.66038,3.60207.53765,15.547,10.01452,19.75009,14.74177,5.52234,6.21172,41.72888,19.27643,53.6268,23.57,1.95027.70337,3.35926,1.212,4.01753,1.46573h.00023c7.6947,2.96482,10.66752,7.74744,11.80669,11.23729,1.59233,4.8806.42379,9.43588-.6875,11.16081C546.64634,248.23125,540.47124,250.0128,534.48234,250.0128Zm-74.437-47.419c.666,0,1.57046.71049,3.62408,2.37456,2.58027,2.09024,6.4793,5.2494,9.61586,5.87716.36642.07324.72447.40343,3.048,2.66726,6.06088,5.90428,22.16,21.58775,42.76833,31.84247.21109.10474,21.696,9.698,30.28252-3.63482,1.06218-1.64932,1.936-5.87916.5524-10.1185-1.5151-4.64289-5.34739-8.26535-11.0832-10.47544-.64626-.249-2.05012-.75548-3.993-1.45648-13.23653-4.77636-48.397-17.46376-54.1261-23.90732-4.27058-4.80374-15.96954-13.8903-19.0161-14.34522-1.41237-.21059-2.68063-.44242-3.907-.66663-3.64907-.66675-6.53217-1.1949-10.01839-.54052-4.144.77623-10.14975,3.947-10.45519,4.95946a1.0907,1.0907,0,0,0,.56514.88308c1.49235.77586,5.35139-1.10492,7.4245-2.11461a6.60992,6.60992,0,0,1,2.14162-.86109h.01611c3.443.067,6.848.33457,10.6474,2.8466a.6117.6117,0,0,1-.12323,1.0833c-4.4503,1.66207-10.81387,4.85835-12.04164,6.33445-1.4,1.68357-4.30708,9.33465-4.511,10.61154-.14735.9217.12273,1.6267.45729,1.75092.27757.10561.82685-.21946,1.41963-1.17815.01223-.0195.07534-.10948.1817-.25808a58.3622,58.3622,0,0,0,3.78767-5.82692c.42106-.92608.73312-1.59558.796-1.70706,1.09891-1.94289,7.42049-4.92409,11.42914-4.92684h.00036a.61163.61163,0,0,1,.07811,1.21828c-3.61333.46491-9.9079,3.40262-10.38008,4.21434a14.58878,14.58878,0,0,1-.83834,1.76317c-1.05993,2.34444-2.81261,6.33721-2.92109,6.804-.16409.8201-.02749,1.41162.36607,1.57971a1.99561,1.99561,0,0,0,2.03686-1.0488c.22321-.3202.44329-.66388.65775-1.01832a18.01672,18.01672,0,0,1,2.97983-5.418,11.86006,11.86006,0,0,1,1.31288-.93033,10.28065,10.28065,0,0,1,2.42355-1.15066,23.75255,23.75255,0,0,1,5.08118-1.0778.61164.61164,0,0,1,.20034,1.206c-.45841.09274-.93732.17447-1.42859.25808a20.25989,20.25989,0,0,0-3.95466.95582,11.254,11.254,0,0,0-1.40549.68275A7.50739,7.50739,0,0,0,452.248,201.015a15.58887,15.58887,0,0,0-.89108,1.63932c-.4673.92158-1.05994,2.091-1.71657,3.18866a5.422,5.422,0,0,0-.2997,1.70868,1.26851,1.26851,0,0,0,.35606.97182.5858.5858,0,0,0,.56977.09836c.94945-.21309,2.5994-1.70981,4.12424-5.22828a.61145.61145,0,0,1,.45241-.35844,23.68207,23.68207,0,0,1,3.47274-.34143c.52315-.02263,1.06417-.04612,1.65144-.09636C459.993,202.595,460.01914,202.59383,460.04538,202.59383Zm-12.58417-18.29311h0Z"/><ellipse cx="427.29901" cy="200.63969" rx="6.82402" ry="5.50325" transform="translate(-26.24076 69.71069) rotate(-9.05006)"/><path d="M426.84441,206.7913c-3.46824,0-6.42082-2.04512-6.8886-4.9817a5.59592,5.59592,0,0,1,1.51172-4.66364,8.63914,8.63914,0,0,1,10.289-1.63894,5.3974,5.3974,0,0,1,1.374,8.62652,8.29263,8.29263,0,0,1-4.86972,2.545A9.01079,9.01079,0,0,1,426.84441,206.7913Zm.9267-11.0812a7.88789,7.88789,0,0,0-1.24152.09923,7.06767,7.06767,0,0,0-4.15373,2.15636,4.3969,4.3969,0,0,0-1.21165,3.65107c.42417,2.66338,3.52147,4.39269,6.90422,3.85341a7.06769,7.06769,0,0,0,4.15373-2.15635,4.17877,4.17877,0,0,0-1.07443-6.74538A6.78613,6.78613,0,0,0,427.77111,195.7101Z"/><path d="M475.11959,322.91005a.61181.61181,0,0,1-.61139-.59977c-.13322-6.7375-.17584-9.97877-.217-13.11332-.0411-3.13254-.08373-6.37182-.21671-13.10532a.61169.61169,0,0,1,.59939-.62364h.01239a.61179.61179,0,0,1,.61137.59977c.13323,6.7375.17584,9.97878.21709,13.11332.041,3.13255.08361,6.37182.21658,13.10532a.61153.61153,0,0,1-.59939.62364Z"/><path d="M354.82837,390.68337s-9.30253-3.94827,36.62272-56.61264c35.3252-40.50875,37.04463-40.379,37.04463-40.379l-.6455-13.08608s-44.01735,42.60524-62.55516,68.12776C337.42134,387.10941,354.82837,390.68337,354.82837,390.68337Z"/><path d="M354.83725,391.29588a.67006.67006,0,0,1-.13186-.01312,7.547,7.547,0,0,1-5.10205-4.79986c-1.98251-5.1108-.95558-15.87094,15.19668-38.10907,18.35685-25.27332,62.184-67.7812,62.62453-68.20774a.61174.61174,0,0,1,1.03657.40942l.64562,13.08583a.6122.6122,0,0,1-.40566.60664c-.45381.26595-4.72577,3.43724-36.78895,40.20518-34.99115,40.12569-37.67378,51.664-37.203,54.76273a1.38441,1.38441,0,0,0,.37956.89021.57418.57418,0,0,1,.37555.71174A.63465.63465,0,0,1,354.83725,391.29588Zm.2302-1.17578Zm72.23837-108.13022c-6.57353,6.42243-44.74334,44.01135-61.51573,67.10332-15.79933,21.75172-16.90974,32.07943-15.05921,36.913a6.76992,6.76992,0,0,0,2.77448,3.45c-.66862-4.16372,3.582-16.91024,37.48469-55.78754,18.256-20.93487,27.3638-30.80729,31.78962-35.40269a50.09125,50.09125,0,0,1,5.08781-4.895Zm1.14966,12.31234a.6214.6214,0,0,0,.09086-.00087A.68775.68775,0,0,1,428.45548,294.30222Zm-.00275-.00037.00214.00037Z"/><path d="M547.82175,188.55743s50.0851-31.65676,54.89283-13.83057c-5.16129-7.63446-53.02091,26.37275-53.02091,26.37275Z"/><path d="M549.69367,201.71112a.6118.6118,0,0,1-.605-.52128l-1.8719-12.54218a.61163.61163,0,0,1,.27794-.60739c1.54184-.97494,37.90436-23.80171,51.26339-18.59368a7.2415,7.2415,0,0,1,4.54728,5.12118.61183.61183,0,0,1-1.09766.50191,1.973,1.973,0,0,0-1.37251-.77511c-9.72907-1.758-50.37767,27.01237-50.78709,27.30344A.61064.61064,0,0,1,549.69367,201.71112ZM548.486,188.864l1.66607,11.16318c5.99739-4.21272,41.34047-28.67007,50.90132-26.93626q.19365.03468.37445.08361a5.933,5.933,0,0,0-3.11432-2.58765C586.18452,165.85526,552.24793,186.53318,548.486,188.864Z"/></svg>